<svg width="29" height="28" viewBox="0 0 29 28" fill="none" xmlns="http://www.w3.org/2000/svg">
<path d="M4.93579 25.3646H22.9878C24.0924 25.3646 24.9878 24.4691 24.9878 23.3646V7.00476C24.9878 5.90019 24.0924 5.00476 22.9878 5.00476H21.9621V7.35371C21.9621 8.24319 21.3807 9.02816 20.5298 9.28741C20.1468 9.40411 19.7371 9.40423 19.3539 9.28816C18.4979 9.02886 17.9107 8.2393 17.9107 7.34485V5.00476H10.1668V7.59754C10.1668 8.34259 9.68086 9.00052 8.96875 9.21963C8.44533 9.38068 7.88641 9.38633 7.35985 9.23588L7.31385 9.22274C6.54373 9.0027 6.01278 8.29881 6.01278 7.49787V5.00476H4.93579C3.83122 5.00476 2.93579 5.90019 2.93579 7.00476V23.3646C2.93579 24.4691 3.83122 25.3646 4.93579 25.3646Z" fill="#B3ABFF"/>
<path d="M8.08276 3.41016L8.08276 7.42053" stroke="#B3ABFF" stroke-width="2.5" stroke-linecap="round"/>
<path d="M19.9404 3.41016L19.9404 7.42053" stroke="#B3ABFF" stroke-width="2.5" stroke-linecap="round"/>
<rect x="4.55835" y="10.5291" width="18.9736" height="13.1642" fill="white"/>
<rect x="6.22852" y="13.4623" width="3.70825" height="2.79114" rx="1" fill="#B3ABFF"/>
<rect x="6.22852" y="17.9689" width="3.70825" height="2.79114" rx="1" fill="#B3ABFF"/>
<rect x="12.1077" y="13.4623" width="3.70825" height="2.79114" rx="1" fill="#B3ABFF"/>
<rect x="12.1077" y="17.9689" width="3.70825" height="2.79114" rx="1" fill="#B3ABFF"/>
<rect x="17.9868" y="13.4623" width="3.70825" height="2.79114" rx="1" fill="#B3ABFF"/>
<rect x="17.9868" y="17.9689" width="3.70825" height="2.79114" rx="1" fill="#B3ABFF"/>
</svg>
